# xmcd CD database file
#
# Track frame offsets:
#	150
#	16737
#	32069
#	45350
#	57570
#	74880
#	83719
#	95500
#	108608
#	118945
#	132110
#	149818
#	166104
#	177927
#	190856
#	213815
#
# Disc length: 3171 seconds
#
# Revision: 1
# Processed by: cddbd v1.5.2PL0 Copyright (c) Steve Scherf et al.
# Submitted via: CDex 1.70beta2
#
DISCID=e60c6110
DTITLE=Dick Dameron - The Big Picture
DYEAR=2004
DGENRE=Country
TTITLE0=No ne Misses Me
TTITLE1=Five Minutes of the Latest Blues
TTITLE2=All About Love
TTITLE3=You Don't Know the Lady
TTITLE4=Free Love
TTITLE5=Phantome of the Fifties
TTITLE6=Countrified
TTITLE7=High on You
TTITLE8=One Night Stand
TTITLE9=Susan Flowers
TTITLE10=Jesus It's Me Again
TTITLE11=Superstar
TTITLE12=Rock'n'Roll FReeway
TTITLE13=Rock A Bue Baby Blues
TTITLE14=After Dark
TTITLE15=Ain't No Love Around
EXTD=YEAR: 2004
EXTT0=
EXTT1=
EXTT2=
EXTT3=
EXTT4=
EXTT5=
EXTT6=
EXTT7=
EXTT8=
EXTT9=
EXTT10=
EXTT11=
EXTT12=
EXTT13=
EXTT14=
EXTT15=
PLAYORDER=
